<svg width="100" height="100" viewBox="0 0 100 100" fill="none" xmlns="http://www.w3.org/2000/svg">
<path d="M25.6416 74.359H47.5967V58.6539H25.6416V74.359ZM25.6416 53.8462H47.5967V25.6411H25.6416V53.8462ZM52.4044 74.359H74.3595V46.1539H52.4044V74.359ZM52.4044 41.3462H74.3595V25.6411H52.4044V41.3462ZM22.1161 85.4166C20.0113 85.4166 18.2298 84.6875 16.7715 83.2291C15.3132 81.7708 14.584 79.9893 14.584 77.8845V22.1156C14.584 20.0109 15.3132 18.2293 16.7715 16.771C18.2298 15.3127 20.0113 14.5835 22.1161 14.5835H77.885C79.9897 14.5835 81.7713 15.3127 83.2296 16.771C84.688 18.2293 85.4171 20.0109 85.4171 22.1156V30.7694H92.7888V37.0192H85.4171V46.8752H92.7888V53.125H85.4171V62.9809H92.7888V69.2307H85.4171V77.8845C85.4171 79.9893 84.688 81.7708 83.2296 83.2291C81.7713 84.6875 79.9897 85.4166 77.885 85.4166H22.1161ZM22.1161 79.1667H77.885C78.2056 79.1667 78.4994 79.0332 78.7666 78.7661C79.0337 78.4989 79.1672 78.2051 79.1672 77.8845V22.1156C79.1672 21.795 79.0337 21.5012 78.7666 21.234C78.4994 20.9669 78.2056 20.8334 77.885 20.8334H22.1161C21.7955 20.8334 21.5017 20.9669 21.2345 21.234C20.9674 21.5012 20.8339 21.795 20.8339 22.1156V77.8845C20.8339 78.2051 20.9674 78.4989 21.2345 78.7661C21.5017 79.0332 21.7955 79.1667 22.1161 79.1667Z" fill="#DDDDDD"/>
</svg>
